<mxfile host="app.diagrams.net" modified="2022-11-14T14:28:17.145Z" agent="5.0 (Windows NT 10.0; Win64; x64) AppleWebKit/537.36 (KHTML, like Gecko) Chrome/106.0.0.0 Safari/537.36 OPR/92.0.0.0" etag="vD3iWPoTqhke_3PnFiim" version="20.5.3" type="github">
  <diagram id="CKhxAZLr0-Xkx9huDtoT" name="Página-1">
    <mxGraphModel dx="1051" dy="1737" grid="1" gridSize="10" guides="1" tooltips="1" connect="1" arrows="1" fold="1" page="1" pageScale="1" pageWidth="827" pageHeight="1169" math="0" shadow="0">
      <root>
        <mxCell id="0" />
        <mxCell id="1" parent="0" />
        <mxCell id="BOWhHV24pRa6LgOlHLNw-64" value="" style="rounded=0;whiteSpace=wrap;html=1;strokeColor=#000000;fillColor=none;" vertex="1" parent="1">
          <mxGeometry x="150" y="70" width="210" height="890" as="geometry" />
        </mxCell>
        <mxCell id="BOWhHV24pRa6LgOlHLNw-65" value="" style="rounded=0;whiteSpace=wrap;html=1;strokeColor=#000000;fillColor=none;" vertex="1" parent="1">
          <mxGeometry x="360" y="70" width="360" height="890" as="geometry" />
        </mxCell>
        <mxCell id="BOWhHV24pRa6LgOlHLNw-6" style="edgeStyle=orthogonalEdgeStyle;rounded=0;orthogonalLoop=1;jettySize=auto;html=1;exitX=0.5;exitY=1;exitDx=0;exitDy=0;entryX=0.5;entryY=0;entryDx=0;entryDy=0;" edge="1" parent="1" source="BOWhHV24pRa6LgOlHLNw-1" target="BOWhHV24pRa6LgOlHLNw-7">
          <mxGeometry relative="1" as="geometry">
            <mxPoint x="250" y="150" as="targetPoint" />
          </mxGeometry>
        </mxCell>
        <mxCell id="BOWhHV24pRa6LgOlHLNw-1" value="" style="ellipse;whiteSpace=wrap;html=1;aspect=fixed;fillColor=#000000;" vertex="1" parent="1">
          <mxGeometry x="230" y="80" width="40" height="40" as="geometry" />
        </mxCell>
        <mxCell id="BOWhHV24pRa6LgOlHLNw-10" style="edgeStyle=orthogonalEdgeStyle;rounded=0;orthogonalLoop=1;jettySize=auto;html=1;exitX=1;exitY=0.5;exitDx=0;exitDy=0;entryX=0;entryY=0.5;entryDx=0;entryDy=0;" edge="1" parent="1" source="BOWhHV24pRa6LgOlHLNw-7" target="BOWhHV24pRa6LgOlHLNw-42">
          <mxGeometry relative="1" as="geometry" />
        </mxCell>
        <mxCell id="BOWhHV24pRa6LgOlHLNw-7" value="Solicitar &lt;br&gt;identificación" style="rounded=1;whiteSpace=wrap;html=1;fillColor=none;" vertex="1" parent="1">
          <mxGeometry x="200" y="160" width="100" height="60" as="geometry" />
        </mxCell>
        <mxCell id="BOWhHV24pRa6LgOlHLNw-11" style="edgeStyle=orthogonalEdgeStyle;rounded=0;orthogonalLoop=1;jettySize=auto;html=1;exitX=0;exitY=0.5;exitDx=0;exitDy=0;entryX=1;entryY=0.5;entryDx=0;entryDy=0;" edge="1" parent="1" source="BOWhHV24pRa6LgOlHLNw-25" target="BOWhHV24pRa6LgOlHLNw-9">
          <mxGeometry relative="1" as="geometry" />
        </mxCell>
        <mxCell id="BOWhHV24pRa6LgOlHLNw-26" style="edgeStyle=orthogonalEdgeStyle;rounded=0;orthogonalLoop=1;jettySize=auto;html=1;exitX=0.5;exitY=1;exitDx=0;exitDy=0;" edge="1" parent="1" source="BOWhHV24pRa6LgOlHLNw-8" target="BOWhHV24pRa6LgOlHLNw-25">
          <mxGeometry relative="1" as="geometry" />
        </mxCell>
        <mxCell id="BOWhHV24pRa6LgOlHLNw-8" value="Entregar&lt;br&gt;formularios" style="rounded=1;whiteSpace=wrap;html=1;fillColor=none;" vertex="1" parent="1">
          <mxGeometry x="544" y="160" width="100" height="60" as="geometry" />
        </mxCell>
        <mxCell id="BOWhHV24pRa6LgOlHLNw-13" style="edgeStyle=orthogonalEdgeStyle;rounded=0;orthogonalLoop=1;jettySize=auto;html=1;exitX=0.5;exitY=1;exitDx=0;exitDy=0;" edge="1" parent="1" source="BOWhHV24pRa6LgOlHLNw-9" target="BOWhHV24pRa6LgOlHLNw-12">
          <mxGeometry relative="1" as="geometry" />
        </mxCell>
        <mxCell id="BOWhHV24pRa6LgOlHLNw-9" value="Llenar &lt;br&gt;formularios y tarjeta de identificación" style="rounded=1;whiteSpace=wrap;html=1;fillColor=none;" vertex="1" parent="1">
          <mxGeometry x="200" y="245" width="100" height="60" as="geometry" />
        </mxCell>
        <mxCell id="BOWhHV24pRa6LgOlHLNw-16" style="edgeStyle=orthogonalEdgeStyle;rounded=0;orthogonalLoop=1;jettySize=auto;html=1;exitX=1;exitY=0.5;exitDx=0;exitDy=0;" edge="1" parent="1" source="BOWhHV24pRa6LgOlHLNw-12" target="BOWhHV24pRa6LgOlHLNw-14">
          <mxGeometry relative="1" as="geometry" />
        </mxCell>
        <mxCell id="BOWhHV24pRa6LgOlHLNw-12" value="Devolver formularios" style="rounded=1;whiteSpace=wrap;html=1;fillColor=none;" vertex="1" parent="1">
          <mxGeometry x="200" y="345" width="100" height="60" as="geometry" />
        </mxCell>
        <mxCell id="BOWhHV24pRa6LgOlHLNw-17" style="edgeStyle=orthogonalEdgeStyle;rounded=0;orthogonalLoop=1;jettySize=auto;html=1;entryX=0.5;entryY=0;entryDx=0;entryDy=0;" edge="1" parent="1" source="BOWhHV24pRa6LgOlHLNw-14" target="BOWhHV24pRa6LgOlHLNw-22">
          <mxGeometry relative="1" as="geometry">
            <mxPoint x="594" y="429" as="targetPoint" />
          </mxGeometry>
        </mxCell>
        <mxCell id="BOWhHV24pRa6LgOlHLNw-14" value="Revisar información" style="rounded=1;whiteSpace=wrap;html=1;fillColor=none;" vertex="1" parent="1">
          <mxGeometry x="544" y="345" width="100" height="60" as="geometry" />
        </mxCell>
        <mxCell id="BOWhHV24pRa6LgOlHLNw-24" style="edgeStyle=orthogonalEdgeStyle;rounded=0;orthogonalLoop=1;jettySize=auto;html=1;exitX=0;exitY=0.5;exitDx=0;exitDy=0;entryX=1;entryY=0.5;entryDx=0;entryDy=0;" edge="1" parent="1" source="BOWhHV24pRa6LgOlHLNw-22" target="BOWhHV24pRa6LgOlHLNw-30">
          <mxGeometry relative="1" as="geometry">
            <mxPoint x="300" y="495" as="targetPoint" />
          </mxGeometry>
        </mxCell>
        <mxCell id="BOWhHV24pRa6LgOlHLNw-32" style="edgeStyle=orthogonalEdgeStyle;rounded=0;orthogonalLoop=1;jettySize=auto;html=1;exitX=0.5;exitY=1;exitDx=0;exitDy=0;entryX=0.5;entryY=0;entryDx=0;entryDy=0;" edge="1" parent="1" source="BOWhHV24pRa6LgOlHLNw-22" target="BOWhHV24pRa6LgOlHLNw-31">
          <mxGeometry relative="1" as="geometry" />
        </mxCell>
        <mxCell id="BOWhHV24pRa6LgOlHLNw-22" value="" style="rhombus;whiteSpace=wrap;html=1;fillColor=none;" vertex="1" parent="1">
          <mxGeometry x="569" y="470" width="50" height="51" as="geometry" />
        </mxCell>
        <mxCell id="BOWhHV24pRa6LgOlHLNw-25" value="Crea identificación" style="rounded=1;whiteSpace=wrap;html=1;fillColor=none;" vertex="1" parent="1">
          <mxGeometry x="544" y="250" width="100" height="50" as="geometry" />
        </mxCell>
        <mxCell id="BOWhHV24pRa6LgOlHLNw-51" style="edgeStyle=orthogonalEdgeStyle;rounded=0;orthogonalLoop=1;jettySize=auto;html=1;exitX=0.5;exitY=0;exitDx=0;exitDy=0;entryX=0.5;entryY=1;entryDx=0;entryDy=0;" edge="1" parent="1" source="BOWhHV24pRa6LgOlHLNw-27" target="BOWhHV24pRa6LgOlHLNw-42">
          <mxGeometry relative="1" as="geometry" />
        </mxCell>
        <mxCell id="BOWhHV24pRa6LgOlHLNw-27" value="Destruir&lt;br&gt;tarjeta" style="rounded=1;whiteSpace=wrap;html=1;fillColor=none;" vertex="1" parent="1">
          <mxGeometry x="368" y="665.5" width="100" height="60" as="geometry" />
        </mxCell>
        <mxCell id="BOWhHV24pRa6LgOlHLNw-28" value="[documento incorrecto]" style="text;html=1;strokeColor=none;fillColor=none;align=center;verticalAlign=middle;whiteSpace=wrap;rounded=0;" vertex="1" parent="1">
          <mxGeometry x="424" y="470" width="140" height="30" as="geometry" />
        </mxCell>
        <mxCell id="BOWhHV24pRa6LgOlHLNw-29" value="[documento correcto]" style="text;html=1;strokeColor=none;fillColor=none;align=center;verticalAlign=middle;whiteSpace=wrap;rounded=0;" vertex="1" parent="1">
          <mxGeometry x="534" y="525" width="140" height="30" as="geometry" />
        </mxCell>
        <mxCell id="BOWhHV24pRa6LgOlHLNw-30" value="" style="ellipse;html=1;shape=endState;fillColor=#000000;strokeColor=#000000;" vertex="1" parent="1">
          <mxGeometry x="235" y="480.5" width="30" height="30" as="geometry" />
        </mxCell>
        <mxCell id="BOWhHV24pRa6LgOlHLNw-38" style="edgeStyle=orthogonalEdgeStyle;rounded=0;orthogonalLoop=1;jettySize=auto;html=1;exitX=0.5;exitY=1;exitDx=0;exitDy=0;entryX=0.5;entryY=0;entryDx=0;entryDy=0;" edge="1" parent="1" source="BOWhHV24pRa6LgOlHLNw-31" target="BOWhHV24pRa6LgOlHLNw-37">
          <mxGeometry relative="1" as="geometry" />
        </mxCell>
        <mxCell id="BOWhHV24pRa6LgOlHLNw-31" value="Revisar identificación" style="rounded=1;whiteSpace=wrap;html=1;fillColor=none;" vertex="1" parent="1">
          <mxGeometry x="544" y="575" width="100" height="50" as="geometry" />
        </mxCell>
        <mxCell id="BOWhHV24pRa6LgOlHLNw-40" style="edgeStyle=orthogonalEdgeStyle;rounded=0;orthogonalLoop=1;jettySize=auto;html=1;exitX=0;exitY=0.5;exitDx=0;exitDy=0;entryX=1;entryY=0.5;entryDx=0;entryDy=0;" edge="1" parent="1" source="BOWhHV24pRa6LgOlHLNw-37" target="BOWhHV24pRa6LgOlHLNw-27">
          <mxGeometry relative="1" as="geometry">
            <mxPoint x="395" y="695.5" as="targetPoint" />
          </mxGeometry>
        </mxCell>
        <mxCell id="BOWhHV24pRa6LgOlHLNw-54" style="edgeStyle=orthogonalEdgeStyle;rounded=0;orthogonalLoop=1;jettySize=auto;html=1;exitX=0.5;exitY=1;exitDx=0;exitDy=0;entryX=0.5;entryY=0;entryDx=0;entryDy=0;" edge="1" parent="1" source="BOWhHV24pRa6LgOlHLNw-37" target="BOWhHV24pRa6LgOlHLNw-53">
          <mxGeometry relative="1" as="geometry" />
        </mxCell>
        <mxCell id="BOWhHV24pRa6LgOlHLNw-37" value="" style="rhombus;whiteSpace=wrap;html=1;fillColor=none;" vertex="1" parent="1">
          <mxGeometry x="569" y="670" width="50" height="51" as="geometry" />
        </mxCell>
        <mxCell id="BOWhHV24pRa6LgOlHLNw-52" style="edgeStyle=orthogonalEdgeStyle;rounded=0;orthogonalLoop=1;jettySize=auto;html=1;exitX=1;exitY=0.5;exitDx=0;exitDy=0;entryX=0;entryY=0.5;entryDx=0;entryDy=0;" edge="1" parent="1" source="BOWhHV24pRa6LgOlHLNw-42" target="BOWhHV24pRa6LgOlHLNw-8">
          <mxGeometry relative="1" as="geometry" />
        </mxCell>
        <mxCell id="BOWhHV24pRa6LgOlHLNw-42" value="" style="rhombus;strokeColor=#000000;fillColor=none;" vertex="1" parent="1">
          <mxGeometry x="400" y="173" width="35" height="35" as="geometry" />
        </mxCell>
        <mxCell id="BOWhHV24pRa6LgOlHLNw-49" value="[trajeta incorrecta]" style="text;html=1;strokeColor=none;fillColor=none;align=center;verticalAlign=middle;whiteSpace=wrap;rounded=0;" vertex="1" parent="1">
          <mxGeometry x="465" y="668.5" width="120" height="30" as="geometry" />
        </mxCell>
        <mxCell id="BOWhHV24pRa6LgOlHLNw-68" style="edgeStyle=orthogonalEdgeStyle;rounded=0;orthogonalLoop=1;jettySize=auto;html=1;exitX=0;exitY=0.5;exitDx=0;exitDy=0;entryX=1;entryY=0.5;entryDx=0;entryDy=0;entryPerimeter=0;" edge="1" parent="1" source="BOWhHV24pRa6LgOlHLNw-53" target="BOWhHV24pRa6LgOlHLNw-55">
          <mxGeometry relative="1" as="geometry" />
        </mxCell>
        <mxCell id="BOWhHV24pRa6LgOlHLNw-53" value="Sellar&lt;br&gt;identificación" style="rounded=1;whiteSpace=wrap;html=1;fillColor=none;" vertex="1" parent="1">
          <mxGeometry x="544" y="745" width="100" height="50" as="geometry" />
        </mxCell>
        <mxCell id="BOWhHV24pRa6LgOlHLNw-58" style="edgeStyle=orthogonalEdgeStyle;rounded=0;orthogonalLoop=1;jettySize=auto;html=1;" edge="1" parent="1" source="BOWhHV24pRa6LgOlHLNw-55" target="BOWhHV24pRa6LgOlHLNw-57">
          <mxGeometry relative="1" as="geometry">
            <Array as="points">
              <mxPoint x="305" y="825" />
              <mxPoint x="270" y="825" />
            </Array>
          </mxGeometry>
        </mxCell>
        <mxCell id="BOWhHV24pRa6LgOlHLNw-55" value="Recibir &#xa;etiqueta &#xa;semestre" style="shape=mxgraph.sysml.accEvent;flipH=1;whiteSpace=wrap;align=center;strokeColor=#000000;fillColor=none;direction=west;" vertex="1" parent="1">
          <mxGeometry x="265" y="740" width="80" height="60" as="geometry" />
        </mxCell>
        <mxCell id="BOWhHV24pRa6LgOlHLNw-63" style="edgeStyle=orthogonalEdgeStyle;rounded=0;orthogonalLoop=1;jettySize=auto;html=1;entryX=0.5;entryY=1;entryDx=0;entryDy=0;" edge="1" parent="1" source="BOWhHV24pRa6LgOlHLNw-57" target="BOWhHV24pRa6LgOlHLNw-30">
          <mxGeometry relative="1" as="geometry" />
        </mxCell>
        <mxCell id="BOWhHV24pRa6LgOlHLNw-57" value="Pegar &lt;br&gt;etiqueta en &lt;br&gt;tarjeta de &lt;br&gt;identif." style="rounded=1;whiteSpace=wrap;html=1;strokeColor=#000000;fillColor=none;" vertex="1" parent="1">
          <mxGeometry x="200" y="850" width="100" height="60" as="geometry" />
        </mxCell>
        <mxCell id="BOWhHV24pRa6LgOlHLNw-66" value="Estudiante" style="rounded=0;whiteSpace=wrap;html=1;strokeColor=#000000;fillColor=none;fontStyle=1" vertex="1" parent="1">
          <mxGeometry x="150" y="40" width="210" height="30" as="geometry" />
        </mxCell>
        <mxCell id="BOWhHV24pRa6LgOlHLNw-67" value="Empleado Oficina Estudiantes" style="rounded=0;whiteSpace=wrap;html=1;strokeColor=#000000;fillColor=none;fontStyle=1" vertex="1" parent="1">
          <mxGeometry x="360" y="40" width="360" height="30" as="geometry" />
        </mxCell>
        <mxCell id="BOWhHV24pRa6LgOlHLNw-69" value="&lt;h1&gt;Diagrama de Actividades&lt;/h1&gt;&lt;p style=&quot;line-height: 100%; margin-bottom: 0cm&quot;&gt;&lt;br/&gt;&lt;font style=&quot;font-size: 14px;&quot;&gt;Por: Viviana Calva&lt;br&gt;Fecha: 14/11/2022&lt;br&gt;Curso: 3er ciclo CIS &quot;A&quot;&lt;br&gt;- Emitir identificación de estudiante&lt;/font&gt;&lt;/p&gt;" style="text;html=1;strokeColor=none;fillColor=none;spacing=5;spacingTop=-20;whiteSpace=wrap;overflow=hidden;rounded=0;" vertex="1" parent="1">
          <mxGeometry x="150" y="-100" width="570" height="140" as="geometry" />
        </mxCell>
      </root>
    </mxGraphModel>
  </diagram>
</mxfile>
